<?xml version="1.0" encoding="UTF-8" standalone="no"?>
<!DOCTYPE svg PUBLIC "-//W3C//DTD SVG 1.1//EN" "http://www.w3.org/Graphics/SVG/1.1/DTD/svg11.dtd">
<svg width="100%" height="100%" viewBox="0 0 1000 1000" version="1.1" xmlns="http://www.w3.org/2000/svg" xmlns:xlink="http://www.w3.org/1999/xlink" xml:space="preserve" xmlns:serif="http://www.serif.com/" style="fill-rule:evenodd;clip-rule:evenodd;stroke-linejoin:round;stroke-miterlimit:1.41421;">
    <g transform="matrix(1.21155,0,0,1.1901,-244.5,-188.646)">
        <rect x="0" y="0" width="1229" height="1157.29" style="fill:rgb(63,81,81);"/>
    </g>
    <path d="M500,27.14C456.149,86.735 398.168,124.815 326.057,141.38C245.504,180.451 180.451,245.504 141.38,326.057C124.815,398.168 86.735,456.149 27.14,500C86.735,543.851 124.815,601.832 141.38,673.943C180.451,754.496 245.504,819.549 326.057,858.62C398.168,875.185 456.149,913.265 500,972.86C543.851,913.265 601.832,875.185 673.943,858.62C754.496,819.549 819.549,754.496 858.62,673.943C875.185,601.832 913.265,543.851 972.86,500C913.265,456.149 875.185,398.168 858.62,326.057C819.549,245.504 754.496,180.451 673.943,141.38C601.832,124.815 543.851,86.735 500,27.14ZM500,159.5C687.927,159.5 840.5,312.073 840.5,500C840.5,687.927 687.927,840.5 500,840.5C312.073,840.5 159.5,687.927 159.5,500C159.5,312.073 312.073,159.5 500,159.5Z"/>
    <path d="M500,27.14C459.67,90.847 402.763,131.14 329.278,148.021C250.217,186.369 186.369,250.217 148.021,329.278C131.14,402.763 90.847,459.67 27.14,500C90.847,540.33 131.14,597.237 148.021,670.722C186.369,749.783 250.217,813.631 329.278,851.979C402.763,868.86 459.67,909.153 500,972.86C540.33,909.153 597.237,868.86 670.722,851.979C749.783,813.631 813.631,749.783 851.979,670.722C868.86,597.237 909.153,540.33 972.86,500C909.153,459.67 868.86,402.763 851.979,329.278C813.631,250.217 749.783,186.369 670.722,148.021C597.237,131.14 540.33,90.847 500,27.14ZM500,154.489C690.693,154.489 845.511,309.307 845.511,500C845.511,690.693 690.693,845.511 500,845.511C309.307,845.511 154.489,690.693 154.489,500C154.489,309.307 309.307,154.489 500,154.489Z" style="fill:rgb(0,145,150);"/>
    <path d="M500,27.14C465.639,97.224 410.423,141.003 334.35,158.478C257.638,195.687 195.687,257.638 158.478,334.35C141.003,410.423 97.224,465.639 27.14,500C97.224,534.361 141.003,589.577 158.478,665.65C195.687,742.362 257.638,804.313 334.35,841.522C410.423,858.997 465.639,902.776 500,972.86C534.361,902.776 589.577,858.997 665.65,841.522C742.362,804.313 804.313,742.362 841.522,665.65C858.997,589.577 902.776,534.361 972.86,500C902.776,465.639 858.997,410.423 841.522,334.35C804.313,257.638 742.362,195.687 665.65,158.478C589.577,141.003 534.361,97.224 500,27.14ZM500,154.489C690.693,154.489 845.511,309.307 845.511,500C845.511,690.693 690.693,845.511 500,845.511C309.307,845.511 154.489,690.693 154.489,500C154.489,309.307 309.307,154.489 500,154.489Z" style="fill:rgb(36,150,120);"/>
    <path d="M500,27.14C473.233,104.461 419.976,152.282 340.23,170.601C266.241,206.488 206.488,266.241 170.601,340.23C152.282,419.976 104.461,473.233 27.14,500C104.461,526.767 152.282,580.024 170.601,659.77C206.488,733.759 266.241,793.512 340.23,829.399C419.976,847.718 473.233,895.539 500,972.86C526.767,895.539 580.024,847.718 659.77,829.399C733.759,793.512 793.512,733.759 829.399,659.77C847.718,580.024 895.539,526.767 972.86,500C895.539,473.233 847.718,419.976 829.399,340.23C793.512,266.241 733.759,206.488 659.77,170.601C580.024,152.282 526.767,104.461 500,27.14ZM500,154.489C690.693,154.489 845.511,309.307 845.511,500C845.511,690.693 690.693,845.511 500,845.511C309.307,845.511 154.489,690.693 154.489,500C154.489,309.307 309.307,154.489 500,154.489Z" style="fill:rgb(114,150,75);"/>
    <path d="M500,27.14C480.169,110.385 428.553,161.587 345.151,180.746C273.44,215.528 215.528,273.44 180.746,345.151C161.587,428.553 110.385,480.169 27.14,500C110.385,519.831 161.587,571.447 180.746,654.849C215.528,726.56 273.44,784.472 345.151,819.254C428.553,838.413 480.169,889.615 500,972.86C519.831,889.615 571.447,838.413 654.849,819.254C726.56,784.472 784.472,726.56 819.254,654.849C838.413,571.447 889.615,519.831 972.86,500C889.615,480.169 838.413,428.553 819.254,345.151C784.472,273.44 726.56,215.528 654.849,180.746C571.447,161.587 519.831,110.385 500,27.14ZM500,154.489C690.693,154.489 845.511,309.307 845.511,500C845.511,690.693 690.693,845.511 500,845.511C309.307,845.511 154.489,690.693 154.489,500C154.489,309.307 309.307,154.489 500,154.489Z" style="fill:rgb(149,150,38);"/>
</svg>
